<svg width="150" height="120.00000000000001" xmlns="http://www.w3.org/2000/svg" xmlns:svg="http://www.w3.org/2000/svg" xmlns:xlink="http://www.w3.org/1999/xlink" stroke="null" style="vector-effect: non-scaling-stroke;">
 <!-- Created with SVG-edit - http://svg-edit.googlecode.com/ -->
 <defs stroke="null" style="vector-effect: non-scaling-stroke;">
  <symbol stroke="null" style="vector-effect: non-scaling-stroke;" id="svg_9" viewBox="0 0 478.35808 745.84538" height="210.49414mm" width="135.00328mm" xmlns="http://www.w3.org/2000/svg" xmlns:svg="http://www.w3.org/2000/svg">

   <metadata stroke="null" style="vector-effect: non-scaling-stroke;" id="svg_8">image/svg+xml</metadata>
   <g stroke="null" style="vector-effect: non-scaling-stroke;" transform="translate(-7.3522548,-3.8028069)" id="svg_4">
    <path style="vector-effect: non-scaling-stroke;" fill="#e54851" fill-rule="evenodd" stroke-width="0.2" stroke-miterlimit="4" id="svg_7" d="m435.2905,71.74258c-10.43071,0.20986 -22.47837,9.27103 -37.26826,33.31117c2.51847,8.29325 6.25936,17.61894 5.24013,22.91874c-4.28918,-1.81108 -6.92585,-6.59968 -9.82522,-10.91239l-16.80752,24.44483c3.7206,9.66531 9.43138,20.21146 8.29908,27.71992l-9.82521,-10.04131c-3.76693,15.86428 -8.58571,30.4198 -18.11753,39.07797c8.57049,20.00983 15.15776,39.22926 11.35131,54.34588c-6.08736,-16.90091 -12.78758,-32.1331 -22.04762,-40.38123c-5.19276,18.6583 -17.83319,33.68748 -20.51474,46.71531c-2.65065,12.87757 -0.31774,24.82062 -0.223,37.10618c-10.74703,9.31314 -24.74082,18.05996 -25.09984,23.79657c6.16909,23.18976 19.22874,47.998 29.90105,72.24732c-12.3858,-12.7165 -22.2581,-27.93918 -32.08218,-43.2174c-0.25723,14.54463 -1.39388,28.72508 -6.55013,41.25236c-2.44991,-11.61207 -6.77964,-16.00849 -10.91239,-21.16975c-2.45095,10.75895 -4.56999,21.48171 -9.82522,32.52109c-8.29466,3.92905 -13.09387,8.72822 -14.40353,14.40353c-4.82645,23.50155 3.15038,47.00359 14.18744,70.50514c-13.32109,-9.96656 -21.24204,-24.61642 -28.38166,-39.94232c-2.58859,18.03604 0.38671,38.7433 5.024,60.24775c-6.09846,-12.61979 -10.77358,-26.46076 -14.84248,-40.82018c-2.20692,18.54009 -9.67596,35.56146 -18.55644,52.17149c-3.91194,9.65698 -7.93828,20.29023 -8.62325,32.41305c-2.04747,36.23485 -1.52796,72.98855 -1.49235,110.39345c0.003,2.70202 0.14728,4.55736 -1.12092,6.21926l-45.51335,59.64675l3.70725,21.6087l73.12519,-107.39523c5.84451,-8.58356 16.71051,-28.29135 29.90779,-31.42714c24.84033,-5.90229 50.23421,-19.20993 83.59867,-74.65131c-12.14634,3.39726 -25.45854,10.30123 -38.85514,17.46252c13.46329,-21.08998 30.78908,-26.73909 48.2414,-31.87283l4.369,-11.5674c-24.47086,5.47032 -43.82213,22.26336 -62.86779,39.72623c15.43341,-23.91623 34.70118,-45.66139 72.03123,-57.18875c10.10025,-14.72828 19.52593,-30.21609 26.19379,-45.83748c-19.39642,8.55151 -39.17671,18.44612 -59.1538,29.02996c18.58552,-18.22329 36.65313,-36.58305 74.21914,-49.9904c12.39562,-11.34094 16.36429,-27.13562 18.98862,-43.64957c-13.32752,3.38001 -29.30959,13.83828 -45.18241,24.00592c6.11869,-15.73421 25.4054,-27.87294 47.36354,-39.28732c1.48225,-3.78352 -0.24928,-7.28213 4.69317,-11.35131c9.78207,-8.05351 17.8622,-15.07875 12.44523,-32.305c-3.18551,-10.13016 4.42107,-16.1753 8.1843,-23.14157c3.31467,-6.13593 3.30551,-13.67526 2.18113,-20.51474c-20.07455,10.64728 -37.95466,26.16084 -55.4398,42.56236c8.57679,-20.15459 26.14954,-40.30925 63.73215,-60.46384l0.43891,-14.62639c-10.15266,2.41291 -19.22023,6.97722 -28.59774,10.91917c10.58774,-10.04072 24.0287,-19.56898 37.76796,-29.0367c4.53495,-19.12404 5.11507,-40.22202 6.9823,-60.67992c-12.70114,8.18679 -25.44554,16.29586 -39.28731,22.48653c8.76425,-13.91853 21.71906,-25.5949 38.63228,-35.14788c0.39735,-23.03699 -4.33367,-39.23507 -12.66132,-50.63866c-15.35746,9.18574 -24.37959,21.98929 -31.65,35.79618c0.0602,-16.93652 6.1535,-33.11615 22.48653,-48.01858c-8.31669,-11.34671 -17.13387,-19.9887 -27.56458,-19.77873l0.00014,0zm-13.82956,85.5637c1.84728,0.29146 3.41123,3.21541 2.97117,5.59126c-24.7451,133.6032 -71.68535,273.77084 -167.19729,428.26416l-13.10027,2.18787c85.31734,-136.89626 140.77968,-280.91564 173.31526,-430.45203c0.96855,-4.45153 2.57434,-5.81792 4.01113,-5.59126z"/>
    <path style="vector-effect: non-scaling-stroke;" fill="#e54851" fill-rule="evenodd" stroke-width="0.2" stroke-miterlimit="4" id="svg_6" d="m59.17353,3.80348c-6.61043,-0.03458 -13.01266,1.26779 -19.29253,3.38313l8.64348,17.28696c-3.1232,1.50119 -8.61036,0.24305 -16.67248,-4.01788c-28.00798,23.63446 -24.01608,51.84048 -12.03331,81.18793c16.79802,5.44325 32.36983,10.3978 45.06762,14.20096c-8.23824,1.23267 -18.92503,1.64949 -32.1024,1.23578c7.34419,15.12989 17.68975,30.08024 11.72944,45.99275c32.50008,21.6681 62.63028,44.51966 67.60149,79.95219c-17.15544,-17.25457 -32.39431,-34.84688 -56.18262,-50.93575c21.16166,59.79766 18.77533,120.69457 4.63235,182.13433c15.38346,13.57451 27.31893,26.96834 34.88457,40.1314c-18.88068,-14.0598 -37.05432,-24.30229 -51.86088,-16.36183c21.94991,21.22454 39.25433,45.39119 36.73479,82.11305c-8.43234,-17.09186 -17.08657,-33.7419 -25.93044,-50.01065c-2.47515,9.77812 -2.18898,24.88731 -8.79882,28.24661c-34.82489,17.69884 -42.10419,36.97107 -36.57945,59.42393c7.94678,-37.62269 54.49393,-29.59635 46.91788,19.44782c-2.89048,-5.84658 -6.29235,-10.66557 -9.56861,-15.74057c4.25017,12.78786 11.52819,26.65397 4.32174,37.34927l-38.89566,57.72901l2.47149,15.74057l39.51017,-61.42945c2.54592,-3.95813 5.3945,-5.52346 8.02896,-5.24687c64.93179,6.81417 91.35837,-17.57157 107.11841,-52.78601c-16.02038,5.76987 -32.18538,11.9705 -46.61405,12.96522c71.41858,-44.60741 100.22585,-100.43146 109.27927,-161.45076c-13.1913,12.57536 -26.84754,23.30752 -41.67778,29.32709c62.94624,-73.62858 54.01237,-115.83082 37.35604,-154.65754c-5.70822,14.85268 -5.24462,21.99008 -19.75847,47.84978c-0.64958,-35.86954 3.02795,-68.59524 20.37296,-91.37779c-24.83206,14.52308 -25.92263,50.2097 -37.34928,65.44735c9.46458,-51.39582 14.44959,-100.12098 5.86136,-134.28458c-3.77406,17.75962 -6.5325,36.12729 -14.20096,51.55027c-1.1714,-57.14073 -23.29308,-94.16535 -44.45318,-132.11694c4.24658,19.3977 9.55098,39.49165 1.857,50.92901c-5.32545,-36.93487 -22.47509,-64.50504 -47.53914,-85.81354c1.55783,10.29705 4.40852,21.24336 -0.31047,28.40192l-12.04009,-31.18405c-7.10014,-3.21648 -13.91784,-4.57869 -20.52827,-4.61212l-0.00013,0zm44.34509,93.41714c0.90003,-0.26588 2.40299,0.78966 3.65996,2.57278c89.43678,126.87294 95.63468,270.10231 -29.63766,437.1102l1.85022,-17.59083c74.5375,-111.1556 88.59443,-173.09422 17.59761,-249.43191c-3.39927,-3.65498 -3.24407,-5.00429 0.31047,-3.08599c29.12659,15.71834 49.35088,44.43457 57.10775,91.37779c16.6377,-85.20002 3.18433,-170.40388 -50.93575,-255.60391c-1.15269,-3.49746 -0.85276,-5.08216 0.0474,-5.34813z"/>
    <path style="vector-effect: non-scaling-stroke;" fill="#e54851" fill-rule="evenodd" stroke-width="0.2" stroke-miterlimit="4" id="svg_5" d="m434.70572,440.28571c5.85966,24.07825 11.66915,48.12434 9.33223,72.67276c-1.70996,17.96208 -17.98359,13.65141 -29.71197,16.84804c-8.69606,16.84189 -24.70386,29.02806 -39.51014,41.98162c20.37559,3.05015 38.70589,0.77961 56.18262,-3.70722c-16.6779,15.06856 -36.65395,20.80022 -59.88987,17.28696c-6.56704,14.87909 -21.33619,23.44855 -35.1884,32.72366c15.29083,6.61351 41.88256,7.64381 68.53335,8.64348c-3.26876,2.13456 -5.7224,4.85518 -12.35074,5.55748c-19.54602,2.07094 -40.42081,-1.58469 -61.11884,-4.32174c18.47952,6.54595 37.92711,11.63402 59.8831,12.96522c-1.4948,2.62115 -3.0285,5.15508 -6.79325,5.55752c-31.74384,3.39346 -58.57541,-2.75973 -80.87729,-17.90822c-29.02715,13.02178 -41.12481,29.91207 -50.00388,47.53914c17.29699,4.28298 31.10948,9.57573 45.06763,14.82222c-13.78334,-0.73923 -27.90292,-4.06075 -45.06763,-6.17874c0.59011,10.70145 2.23697,21.40772 8.02223,32.10917c12.07231,-3.61141 22.34446,-4.82482 32.72366,-6.17873l-22.22996,16.05796c8.67467,7.95642 19.55757,14.62124 35.19518,18.51595c18.70196,-9.81688 33.03659,-22.10379 48.15365,-33.95266c-5.57466,13.29209 -19.19336,25.51051 -33.33818,37.65989c12.9498,0.73065 25.89974,1.44401 38.28115,-1.23574c7.86663,-9.50437 14.86706,-19.58364 20.98747,-30.25218c-0.32361,9.37841 -2.96661,17.01686 -5.55751,24.69469c13.6178,-5.07942 23.02201,-24.71502 30.25217,-51.86087c6.10078,10.47669 2.17961,22.38858 0.62126,33.95943c30.55225,-21.46895 39.81764,-49.9348 28.40196,-85.19905c12.85676,13.3948 13.07969,38.92968 13.5797,64.20484c11.89523,-43.64612 27.63936,-36.23686 14.20096,-96.31402c6.68528,6.64476 12.36485,15.79945 17.90148,25.31592c2.97097,-32.40835 6.49609,-68.36494 4.94296,-71.61932c-10.92546,-20.06055 -21.3868,-44.63652 -33.9594,-48.77488c-1.79511,-25.4287 -5.28563,-48.94896 -11.72948,-69.14784l-4.93622,-2.46474zm14.19418,97.54302l4.943,4.943c-0.6086,102.68468 -90.31036,139.55659 -130.88793,151.87538c-7.21935,2.19167 -6.8956,-1.84404 -1.23575,-3.70048c71.74424,-23.53215 122.51314,-71.89889 127.18068,-153.1179z"/>
   </g>
  </symbol>
 </defs>
 <g stroke="null">
  <title stroke="null">Layer 1</title>
  <ellipse stroke="#ff7f00" ry="29.109375" rx="31.007813" id="svg_11" cy="46.495799" cx="72.822245" stroke-linecap="null" stroke-linejoin="null" stroke-dasharray="null" stroke-width="7" fill="none"/>
  <use stroke="null" fill="#7f7f00" x="134.873891" y="352.586054" transform="rotate(-1.6066123247146606 -8.422184944154063,168.91281127929685) matrix(-0.6184723213507499,0,0,0.3774841181797389,205.74414477152206,-106.63636091847356) " xlink:href="#svg_9" id="svg_10"/>
  <text stroke="#7f3f00" style="vector-effect: non-scaling-stroke;" xml:space="preserve" text-anchor="middle" font-family="Fantasy" font-size="24" id="svg_14" y="115.475774" x="76.304543" stroke-linecap="null" stroke-linejoin="null" stroke-dasharray="null" stroke-width="0" fill="#007fff">Eduardo Koch</text>
  <line stroke="#ffaa56" id="svg_34" y2="47.09394" x2="45.643394" y1="47.093941" x1="25.706685" stroke-linecap="null" stroke-linejoin="null" stroke-dasharray="null" stroke-width="5" fill="none"/>
  <line stroke="#ffaa56" id="svg_36" y2="45.353434" x2="120.485167" y1="45.669889" x1="100.548459" stroke-linecap="null" stroke-linejoin="null" stroke-dasharray="null" stroke-width="5" fill="none"/>
  <line transform="rotate(-90.00003051757812 73.80795288085939,11.017990112304695) " stroke="#ffaa56" id="svg_37" y2="10.859763" x2="83.776304" y1="11.176218" x1="63.839595" stroke-linecap="null" stroke-linejoin="null" stroke-dasharray="null" stroke-width="5" fill="none"/>
  <line id="svg_38" transform="rotate(-90.00003051757812 72.6265869140625,82.05698394775392) " stroke="#ffaa56" y2="81.898754" x2="82.594941" y1="82.21521" x1="62.658232" stroke-linecap="null" stroke-linejoin="null" stroke-dasharray="null" stroke-width="5" fill="none"/>
 </g>
</svg>